<svg width="128" height="128" viewBox="0 0 128 128" fill="none" xmlns="http://www.w3.org/2000/svg">
<g clip-path="url(#clip0_1_2)">
<circle cx="64" cy="64" r="64" fill="black"/>
<path d="M19 96V90.8908H19.6238C20.7525 90.8908 21.7624 90.6218 22.6535 90.084C23.604 89.5462 24.5248 88.6797 25.4158 87.4846C26.3069 86.2297 27.2871 84.5565 28.3564 82.465L33.7921 70.9916C34.802 68.7806 36.1089 66.9281 37.7129 65.4342C39.3762 63.8805 41.4852 62.6853 44.0396 61.8487C46.5941 60.9524 49.802 60.4444 53.6634 60.3249L35.6634 36.7507V32H92.9604V36.7507L74.1584 60.3249C78.0198 60.4444 81.2277 60.9524 83.7822 61.8487C86.396 62.6853 88.5347 63.8805 90.198 65.4342C91.8614 66.9281 93.2277 68.7806 94.297 70.9916L99.7327 82.465C100.802 84.5565 101.782 86.2297 102.673 87.4846C103.564 88.6797 104.455 89.5462 105.347 90.084C106.297 90.6218 107.337 90.8908 108.465 90.8908H109V96H100.356C97.8614 96 95.7525 95.6415 94.0297 94.9244C92.3663 94.2073 90.9703 93.2213 89.8416 91.9664C88.7129 90.6517 87.7327 89.1279 86.901 87.395L79.4158 71.9776C78.6436 70.3641 77.8416 69.169 77.0099 68.3922C76.1782 67.5556 75.2871 66.9879 74.3366 66.6891C73.3861 66.3305 72.2574 66.1513 70.9505 66.1513V85.7815C71.0099 87.2754 71.1881 88.381 71.4852 89.098C71.8416 89.8151 72.3168 90.2932 72.9109 90.5322C73.505 90.7712 74.2475 90.8908 75.1386 90.8908H78.9703V96H49.1188V90.8908H53.0396C53.9307 90.8908 54.6733 90.7712 55.2673 90.5322C55.8614 90.2932 56.3069 89.8151 56.604 89.098C56.901 88.3212 57.0495 87.1858 57.0495 85.6919V66.1513C55.8614 66.1513 54.7624 66.3305 53.7525 66.6891C52.7426 66.9879 51.8218 67.5556 50.9901 68.3922C50.2178 69.169 49.4158 70.3641 48.5842 71.9776L41.099 87.395C40.3267 89.1279 39.3465 90.6517 38.1584 91.9664C37.0297 93.2213 35.6337 94.2073 33.9703 94.9244C32.3069 95.6415 30.198 96 27.6436 96H19ZM67.9208 58.6218L83.5149 38.0056H53.3069L67.9208 58.6218Z" fill="white"/>
</g>
<defs>
<clipPath id="clip0_1_2">
<rect width="128" height="128" fill="white"/>
</clipPath>
</defs>
</svg>
